<?xml version="1.0" standalone="no"?><!DOCTYPE svg PUBLIC "-//W3C//DTD SVG 1.1//EN" "http://www.w3.org/Graphics/SVG/1.1/DTD/svg11.dtd"><svg t="1744631200148" class="icon" viewBox="0 0 1181 1024" version="1.1" xmlns="http://www.w3.org/2000/svg" p-id="1590" xmlns:xlink="http://www.w3.org/1999/xlink" width="230.6640625" height="200"><path d="M887.453538 753.545846c42.732308 0 77.390769 30.759385 77.39077 68.804923v110.119385c0 38.045538-34.658462 68.844308-77.39077 68.844308-42.811077 0-77.469538-30.798769-77.469538-68.844308V822.350769c0-38.045538 34.658462-68.804923 77.469538-68.804923m-589.351384 0c42.811077 0 77.430154 30.759385 77.430154 68.804923v110.119385c0 38.045538-34.658462 68.844308-77.430154 68.844308-42.732308 0-77.430154-30.798769-77.430154-68.844308V822.350769c0-38.045538 34.658462-68.804923 77.430154-68.804923m579.780923-216.497231H306.412308c-96.019692 0-160.295385-77.430154-144.541539-167.227077l53.799385-242.727384C227.209846 61.085538 297.668923 10.279385 373.484308 10.279385h440.044307c75.894154 0 146.116923 50.806154 157.341539 116.775384l52.302769 242.727385c15.36 89.836308-49.270154 167.266462-145.289846 167.266461" fill="#afc581" p-id="1591" data-spm-anchor-id="a313x.collections_detail.0.i4.4d923a81i9rK3q" class=""></path><path d="M1064.566154 492.977231h-10.24c0.315077 3.820308 0.630154 7.68 0.630154 11.579077v224.728615c0 91.726769-73.334154 166.045538-163.84 166.045539H290.422154c-90.466462 0-163.800615-74.318769-163.800616-166.045539v-224.728615c0-3.938462 0.315077-7.758769 0.59077-11.579077h-10.24c-46.237538 0-83.652923-34.619077-83.652923-77.272616s37.415385-77.272615 83.613538-77.272615h947.672615c46.158769 0 83.613538 34.619077 83.613539 77.272615s-37.415385 77.272615-83.613539 77.272616" fill="#f1bbbd" p-id="1592" data-spm-anchor-id="a313x.collections_detail.0.i8.4d923a81i9rK3q" class="selected"></path><path d="M345.009231 691.593846a92.947692 92.947692 0 1 1 0.078769-185.856 92.947692 92.947692 0 0 1-0.039385 185.856m495.458462 0a92.947692 92.947692 0 1 1 0.078769-185.895384 92.947692 92.947692 0 0 1-0.039384 185.895384" fill="#FFFFFF" p-id="1593"></path></svg>